<svg xmlns="http://www.w3.org/2000/svg" xmlns:xlink="http://www.w3.org/1999/xlink" id="visual" viewBox="0 0 900 600" width="900" height="600" version="1.1"><rect width="900" height="600" fill="#1A202C"/><g><g transform="translate(463 527)"><path d="M134.3 -174.3C158 -140.2 150.1 -82.6 161.6 -27.1C173 28.4 203.8 81.9 194.9 126.8C186 171.7 137.4 207.9 86.7 217.2C36 226.5 -16.8 208.8 -55.3 181.8C-93.9 154.9 -118.3 118.6 -138.4 81.2C-158.4 43.7 -174.2 5.1 -169.7 -31.6C-165.3 -68.4 -140.6 -103.3 -109 -136C-77.3 -168.7 -38.7 -199.2 8.3 -209.1C55.3 -219 110.6 -208.4 134.3 -174.3Z" fill="none" stroke="#00A3C4" stroke-width="20"/></g><g transform="translate(124 27)"><path d="M84.5 -91.5C109.9 -79.3 131.4 -53.1 134.4 -25.3C137.3 2.5 121.8 32 102.5 53.3C83.2 74.6 59.9 87.7 36.8 92.4C13.6 97.1 -9.5 93.3 -32.4 86.2C-55.2 79 -77.8 68.5 -102.1 48.3C-126.3 28.2 -152.2 -1.6 -146.2 -24.1C-140.2 -46.6 -102.4 -61.8 -72.7 -73.2C-43 -84.6 -21.5 -92.3 4 -97.1C29.5 -101.8 59 -103.7 84.5 -91.5Z" fill="none" stroke="#00A3C4" stroke-width="20"/></g><g transform="translate(815 81)"><path d="M85.5 -102.1C108 -83 121.5 -53.4 127.5 -22.1C133.5 9.3 132.1 42.4 121.3 78.5C110.5 114.6 90.4 153.8 60 165.1C29.5 176.3 -11.2 159.6 -52.7 144.6C-94.1 129.6 -136.3 116.3 -150.3 88.5C-164.3 60.7 -150.3 18.3 -143.8 -26.6C-137.3 -71.5 -138.5 -119 -115.8 -138C-93.1 -157 -46.6 -147.6 -7.5 -138.6C31.5 -129.6 63 -121.1 85.5 -102.1Z" fill="none" stroke="#00A3C4" stroke-width="20"/></g></g></svg>